<svg width="23" height="10" viewBox="0 0 23 10" fill="none" xmlns="http://www.w3.org/2000/svg">
<path d="M22.386 9C22.386 9.28333 22.2792 9.52067 22.0655 9.712C21.8526 9.904 21.5884 10 21.2731 10H3.46664C3.15132 10 2.88682 9.904 2.67314 9.712C2.46021 9.52067 2.35374 9.28333 2.35374 9V7H0.12793V3H2.35374V1C2.35374 0.716667 2.46021 0.479 2.67314 0.287C2.88682 0.0956668 3.15132 0 3.46664 0H21.2731C21.5884 0 21.8526 0.0956668 22.0655 0.287C22.2792 0.479 22.386 0.716667 22.386 1V9ZM9.03116 8V2H4.57955V8H9.03116Z" fill="white"/>
</svg>
