<svg width="40" height="40" viewBox="0 0 40 40" fill="none" xmlns="http://www.w3.org/2000/svg">
<path d="M20.0002 36.6667C17.6946 36.6667 15.5279 36.2292 13.5002 35.3542C11.4724 34.4792 9.7085 33.2917 8.2085 31.7917C6.7085 30.2917 5.521 28.5278 4.646 26.5C3.771 24.4722 3.3335 22.3055 3.3335 20C3.3335 17.6944 3.771 15.5278 4.646 13.5C5.521 11.4722 6.7085 9.70833 8.2085 8.20833C9.7085 6.70833 11.4724 5.52083 13.5002 4.64583C15.5279 3.77083 17.6946 3.33333 20.0002 3.33333C22.3057 3.33333 24.4724 3.77083 26.5002 4.64583C28.5279 5.52083 30.2918 6.70833 31.7918 8.20833C33.2918 9.70833 34.4793 11.4722 35.3543 13.5C36.2293 15.5278 36.6668 17.6944 36.6668 20C36.6668 22.3055 36.2293 24.4722 35.3543 26.5C34.4793 28.5278 33.2918 30.2917 31.7918 31.7917C30.2918 33.2917 28.5279 34.4792 26.5002 35.3542C24.4724 36.2292 22.3057 36.6667 20.0002 36.6667ZM20.0002 33.3333C23.7224 33.3333 26.8752 32.0417 29.4585 29.4583C32.0418 26.875 33.3335 23.7222 33.3335 20C33.3335 16.2778 32.0418 13.125 29.4585 10.5417C26.8752 7.95833 23.7224 6.66666 20.0002 6.66666C16.2779 6.66666 13.1252 7.95833 10.5418 10.5417C7.9585 13.125 6.66683 16.2778 6.66683 20C6.66683 23.7222 7.9585 26.875 10.5418 29.4583C13.1252 32.0417 16.2779 33.3333 20.0002 33.3333ZM20.0002 30C17.2224 30 14.8613 29.0278 12.9168 27.0833C10.9724 25.1389 10.0002 22.7778 10.0002 20C10.0002 17.2222 10.9724 14.8611 12.9168 12.9167C14.8613 10.9722 17.2224 9.99999 20.0002 9.99999C22.7779 9.99999 25.139 10.9722 27.0835 12.9167C29.0279 14.8611 30.0002 17.2222 30.0002 20C30.0002 22.7778 29.0279 25.1389 27.0835 27.0833C25.139 29.0278 22.7779 30 20.0002 30ZM20.0002 26.6667C21.8335 26.6667 23.4029 26.0139 24.7085 24.7083C26.014 23.4028 26.6668 21.8333 26.6668 20C26.6668 18.1667 26.014 16.5972 24.7085 15.2917C23.4029 13.9861 21.8335 13.3333 20.0002 13.3333C18.1668 13.3333 16.5974 13.9861 15.2918 15.2917C13.9863 16.5972 13.3335 18.1667 13.3335 20C13.3335 21.8333 13.9863 23.4028 15.2918 24.7083C16.5974 26.0139 18.1668 26.6667 20.0002 26.6667ZM20.0002 23.3333C19.0835 23.3333 18.2988 23.0069 17.646 22.3542C16.9932 21.7014 16.6668 20.9167 16.6668 20C16.6668 19.0833 16.9932 18.2986 17.646 17.6458C18.2988 16.993 19.0835 16.6667 20.0002 16.6667C20.9168 16.6667 21.7016 16.993 22.3543 17.6458C23.0071 18.2986 23.3335 19.0833 23.3335 20C23.3335 20.9167 23.0071 21.7014 22.3543 22.3542C21.7016 23.0069 20.9168 23.3333 20.0002 23.3333Z" fill="#FF4444"/>
</svg>
